# xmcd CD database file
#
# Track frame offsets:
#	150
#	12680
#	23635
#	36077
#	48722
#	64562
#	82305
#	94030
#	107970
#	118807
#	133837
#	145185
#	156277
#	175122
#	187717
#
# Disc length: 2692 seconds
#
# Revision: 2
# Processed by: cddbd v1.5.1PL0 Copyright (c) Steve Scherf et al.
# Submitted via: CDex 1.51
#
DISCID=d00a820f
DTITLE=Hot Rod Gang - Go Ahead
DYEAR=1900
DGENRE=Neo-Rockabilly
TTITLE0=Rocky Guys
TTITLE1=All Mixed Up
TTITLE2=Sweet Love On My Mind
TTITLE3=Long Gone
TTITLE4=Pride And Joy
TTITLE5=Wished I Could
TTITLE6=Real Gone Rocker
TTITLE7=Riding Along
TTITLE8=Worrying Kind
TTITLE9=The Only One
TTITLE10=Pretty Boys (We Ain't No)
TTITLE11=Uuh What A Night
TTITLE12=I'm A Hobo
TTITLE13=All By Myself
TTITLE14=Ring Of Fire
EXTD=
EXTT0=
EXTT1=
EXTT2=
EXTT3=
EXTT4=
EXTT5=
EXTT6=
EXTT7=
EXTT8=
EXTT9=
EXTT10=
EXTT11=
EXTT12=
EXTT13=
EXTT14=
PLAYORDER=
